<svg width="135" height="44" viewBox="0 0 135 44" fill="none" xmlns="http://www.w3.org/2000/svg">
<path d="M15.6661 10.6535L16.9155 5.82309L22.067 10.1L27.2185 5.82309L28.468 10.6535L30.7161 7.67128L28.8881 0.609375L22.067 6.27162L15.2459 0.609375L13.418 7.67128L15.6661 10.6535Z" fill="white"/>
<path d="M32.8101 9.16194L30.4727 12.265L35.552 11.9708L33.1425 18.2613L38.736 21.9131L34.6114 24.6059L38.04 25.891L44.1321 21.9131L36.7278 17.0795L39.9181 8.75L32.8101 9.16194Z" fill="white"/>
<path d="M20.7855 34.7813L16.9164 37.9925L15.2264 31.4635L8.58248 31.8484L10.4151 27.0625L6.75296 28.4447L4.21484 35.0692L13.0081 34.5602L15.2468 43.2063L20.7683 38.6224L20.7855 34.7813Z" fill="white"/>
<path d="M33.704 27.0312L35.5523 31.8569L28.9084 31.472L27.2184 38.0011L23.3399 34.7818L23.3242 38.5959L28.888 43.2148L31.1267 34.5687L39.92 35.0777L37.363 28.4023L33.704 27.0312Z" fill="white"/>
<path d="M6.13444 25.9181L9.55518 24.6281L5.39762 21.9131L10.9912 18.2613L8.58164 11.9708L13.6594 12.265L11.322 9.16194L4.214 8.75L7.40429 17.0795L0 21.9131L6.13444 25.9181Z" fill="white"/>
<path d="M67.5852 17.3631C68.1872 17.7401 68.6512 18.3079 68.9773 19.0634C69.3034 19.8189 69.4664 20.7445 69.4664 21.8404V28.95H66.1382V22.3732C66.1382 21.5144 65.9751 20.8893 65.649 20.4964C65.323 20.1036 64.8558 19.9079 64.2459 19.9079C63.5797 19.9079 63.0498 20.1338 62.6579 20.5855C62.2659 21.0372 62.07 21.737 62.07 22.685V28.95H58.7637V22.3732C58.7637 21.5144 58.5975 20.8893 58.2636 20.4964C57.9296 20.1036 57.4593 19.9079 56.8495 19.9079C56.1832 19.9079 55.6564 20.1306 55.2724 20.5744C54.8883 21.0181 54.6954 21.7227 54.6954 22.685V28.95H51.3672V17.1516H54.5214L54.6515 18.6626C55.0137 18.0709 55.4856 17.6112 56.0656 17.2852C56.6457 16.9591 57.312 16.7969 58.066 16.7969C58.864 16.7969 59.5569 16.9782 60.1432 17.3408C60.7311 17.7035 61.1842 18.2331 61.5024 18.9298C61.9226 18.2633 62.4635 17.7416 63.1235 17.3631C63.7835 16.9861 64.5626 16.7969 65.4625 16.7969C66.2746 16.7969 66.9816 16.9861 67.5836 17.3631H67.5852Z" fill="white"/>
<path d="M83.1051 17.1438V28.9407H79.9509L79.8208 27.4074C79.3865 28.0436 78.8676 28.5144 78.2656 28.8182C77.6636 29.122 76.9644 29.2731 76.1664 29.2731C75.3685 29.2731 74.6693 29.0838 74.0673 28.7069C73.4653 28.3299 72.9981 27.7621 72.6642 27.0066C72.3302 26.2511 72.1641 25.3254 72.1641 24.2296V17.1422H75.4923V23.6729C75.4923 24.562 75.6632 25.203 76.0034 25.5942C76.3436 25.9871 76.8484 26.1827 77.5147 26.1827C78.1809 26.1827 78.7437 25.9537 79.1576 25.494C79.5715 25.0344 79.7769 24.3234 79.7769 23.3611V17.1406H83.1051V17.1438Z" fill="white"/>
<path d="M93.1118 28.9458L89.6095 23.1691V28.9458H86.2812V14.5469H89.6095V22.4374L93.3077 17.1506H97.2019L92.9613 22.5933L97.2458 28.9474H93.1133L93.1118 28.9458Z" fill="white"/>
<path d="M110.25 17.1438V28.9407H107.095L106.965 27.4074C106.531 28.0436 106.012 28.5144 105.41 28.8182C104.808 29.122 104.109 29.2731 103.311 29.2731C102.513 29.2731 101.814 29.0838 101.212 28.7069C100.61 28.3299 100.143 27.7621 99.8087 27.0066C99.4748 26.2511 99.3086 25.3254 99.3086 24.2296V17.1422H102.637V23.6729C102.637 24.562 102.808 25.203 103.148 25.5942C103.488 25.9871 103.993 26.1827 104.659 26.1827C105.325 26.1827 105.888 25.9537 106.302 25.494C106.716 25.0344 106.921 24.3234 106.921 23.3611V17.1406H110.25V17.1438Z" fill="white"/>
<path d="M118.426 17.4291C119.092 17.0951 119.832 16.9297 120.644 16.9297V20.3509C120.354 20.3207 120.13 20.3064 119.97 20.3064C119.014 20.3064 118.238 20.5354 117.642 20.9951C117.046 21.4547 116.75 22.172 116.75 23.1502V28.9492H113.422V17.1508H116.576L116.706 19.1723C117.184 18.3437 117.758 17.7615 118.424 17.4291H118.426Z" fill="white"/>
<path d="M134.461 17.1438V28.9407H131.306L131.176 27.4074C130.742 28.0436 130.223 28.5144 129.621 28.8182C129.019 29.122 128.32 29.2731 127.522 29.2731C126.724 29.2731 126.025 29.0838 125.423 28.7069C124.821 28.3299 124.354 27.7621 124.02 27.0066C123.686 26.2511 123.52 25.3254 123.52 24.2296V17.1422H126.848V23.6729C126.848 24.562 127.019 25.203 127.359 25.5942C127.699 25.9871 128.204 26.1827 128.87 26.1827C129.536 26.1827 130.099 25.9537 130.513 25.494C130.927 25.0344 131.132 24.3234 131.132 23.3611V17.1406H134.461V17.1438Z" fill="white"/>
</svg>
